<?xml version="1.0" encoding="UTF-8"?>
<svg id="_图层_1" data-name="图层 1" xmlns="http://www.w3.org/2000/svg" viewBox="0 0 397.07 216.3">
  <defs>
  <linearGradient id="Gradient1" x1="0%" y1="0%" x2="100%" y2="0%">
      <stop offset="0%" style="stop-color:rgb(208,208,208);stop-opacity:1" />
      <stop offset="50%" style="stop-color:rgb(255,255,255);stop-opacity:1" />
      <stop offset="100%" style="stop-color:rgb(208,208,208);stop-opacity:1" />
    </linearGradient>
    <style>
      .cls-1 {
        fill: url(#Gradient1);
      }

      .cls-2 {
        fill: #ffffff;
      }
    </style>
  </defs>
  <path class="cls-1" d="M396.3,6.53C368.62,.48,311.14,1.15,310.61,1.37c-16.96,7.22-30.92,14.65-44.69,23.06l-.12,.07c-28.76,15.93-53.7,31.07-66.58,43.74-13.83-13.05-39.46-28.14-68.01-43.75l-.14-.08C116.45,15.26,101.48,7.54,86.16,1.25c-.5-.21-1.01-.33-1.54-.37C55.69-1.3,27.74,.58,.77,6.49c-.99,.22-1.03,.54-.12,.99,27.16,13.06,53.15,27.94,77.95,44.65,.2,.14,.21,.42,.02,.56-20.91,15.7-31.95,40.35-27.82,66.18,5.56,34.88,36.6,59.89,71.96,57.46,20.68-1.41,39.67-12.27,51.86-29.74,.18-.25,.56-.23,.71,.05l22.86,69.45c.15,.27,.54,.27,.69,0l22.75-69.27c.2-.36,.71-.4,.95-.05,14.77,20.98,39.09,32.31,64.61,29.21,19.99-2.43,37.63-13.48,48.63-30.15,20.25-30.71,12.48-71.15-17.39-93.13-.18-.14-.17-.42,.02-.54,25.02-16.87,51.01-31.76,77.97-44.66,.91-.43,.87-.76-.12-.97ZM167.26,136.27c-12.65,21.71-37.58,32.91-62.26,26.99-28.77-6.9-47.3-34.87-42.65-63.79,2.65-16.51,12.15-30.47,26.44-39.44,.36-.23,.81-.21,1.15,.05l20.67,16.08c.24,.2,.17,.59-.14,.67-8.63,2.24-15.32,7.14-20.08,14.7-.13,.21-.05,.46,.14,.56,1.4-.7,3-1.09,4.68-1.09,5.88,0,10.64,4.76,10.64,10.64s-4.76,10.63-10.64,10.63c-4.08,0-7.62-2.29-9.4-5.67-.34,7.17,1.43,13.71,5.32,19.6,12.25,18.57,39.37,19.41,52.78,1.7,3-3.96,4.95-8.25,5.87-12.86,.07-.35,.52-.47,.74-.19l16.64,20.41c.23,.28,.26,.68,.08,.99Zm167.81-34.36c1.49,11.15-1.19,23.87-6.59,33.5-21.81,38.87-75.94,39.11-98.66,.93-.17-.28-.15-.56,.05-.82,5.52-7.24,11.13-14.1,16.81-20.59,.16-.19,.47-.12,.53,.13,2.13,8.79,6.72,15.52,13.77,20.2,13.88,9.2,32.38,6.54,42.98-6.41,5.21-6.36,7.64-13.8,7.31-22.35-1.76,3.43-5.33,5.78-9.46,5.78-5.88,0-10.64-4.75-10.64-10.63s4.76-10.64,10.64-10.64c1.7,0,3.31,.4,4.74,1.11,.19-.05,.28-.29,.17-.47-4.7-7.59-11.41-12.52-20.14-14.81-.3-.08-.38-.47-.14-.66l20.86-16.22c.28-.22,.58-.23,.88-.04,15.52,10.02,24.49,24.01,26.9,41.99Z"/>
  <path class="cls-2" d="M22.62,74.1h.73c0,.27-.18,.3-.56,.1l-.17-.1Z"/>
  <circle class="cls-2" cx="118.37" cy="108.15" r="32.36"/>
  <circle class="cls-2" cx="278.9" cy="108.15" r="32.36"/>
</svg>